<?xml version="1.0" encoding="utf-8"?>
<!-- Svg Vector Icons : http://www.onlinewebfonts.com/icon -->
<!DOCTYPE svg PUBLIC "-//W3C//DTD SVG 1.1//EN" "http://www.w3.org/Graphics/SVG/1.1/DTD/svg11.dtd">
<svg version="1.1" xmlns="http://www.w3.org/2000/svg" xmlns:xlink="http://www.w3.org/1999/xlink" x="0px" y="0px" viewBox="0 0 1000 1000" enable-background="new 0 0 1000 1000" xml:space="preserve">
<metadata> Svg Vector Icons : http://www.onlinewebfonts.com/icon </metadata>
<g><g transform="translate(0.000000,511.000000) scale(0.100000,-0.100000)"><path d="M2782.2,4976.8c-114.8-68.9-127.6-127.6-130.2-610c0-449.2,0-451.7,66.4-528.3c63.8-76.6,71.5-79.1,280.7-79.1c196.5,0,222,5.1,278.2,63.8c63.8,61.3,63.8,66.4,63.8,546.1c0,474.7-2.6,484.9-61.3,556.4c-53.6,63.8-79.1,71.5-247.6,76.6C2904.7,5007.4,2823.1,4999.8,2782.2,4976.8z"/><path d="M4142.5,4987c-125-53.6-137.8-107.2-137.8-622.7c0-474.7,0-479.8,63.8-541c56.1-58.7,81.7-63.8,275.6-63.8c178.6,0,222,7.6,268,51c79.1,76.6,86.8,122.5,76.6,620.2c-7.7,428.8-10.2,454.3-66.3,507.9c-45.9,48.5-89.3,58.7-242.4,63.8C4280.3,5007.4,4170.6,4999.8,4142.5,4987z"/><path d="M5436.4,4943.6l-79.1-66.4v-495.1c0-495.1,0-497.7,63.8-558.9c56.2-58.7,81.7-63.8,275.6-63.8c196.5,0,216.9,5.1,275.6,66.4c58.7,63.8,61.3,81.7,68.9,490c5.1,265.4-2.5,461.9-20.4,520.6c-35.7,127.6-127.6,173.5-342,173.5C5538.5,5010,5502.8,4999.8,5436.4,4943.6z"/><path d="M6806.9,4969.2c-107.2-56.1-127.6-171-117.4-653.3c7.6-408.3,10.2-426.2,68.9-490c58.7-61.2,79.1-66.4,275.6-66.4c194,0,219.5,5.1,275.6,63.8c63.8,61.3,63.8,63.8,63.8,558.9v495.1l-79.1,66.4c-66.4,56.2-102.1,66.4-247.6,66.4C6947.2,5007.4,6847.7,4992.1,6806.9,4969.2z"/><path d="M2297.3,3386.9c-255.2-89.3-469.6-293.5-569.1-543.6l-58.7-142.9V97.2v-2603.1l58.7-145.5c81.7-204.2,252.7-382.8,459.4-484.9l171-84.2H5000h2641.4l171,84.2c280.7,137.8,459.4,382.8,507.9,699.3c15.3,99.5,23,1110.2,17.9,2649.1l-7.6,2488.3l-58.7,145.5c-79.1,193.9-275.6,408.3-459.4,497.7l-145.5,71.5l-2628.7,5.1C2715.9,3425.2,2396.9,3420.1,2297.3,3386.9z M6620.6,2036.8c127.6-63.8,268-204.2,331.8-331.8c48.5-97,51-160.8,51-1595s-2.5-1498.1-51-1595c-63.8-127.6-204.2-268-331.8-331.8c-97-48.5-171-51-1544-58.7c-992.8-5.1-1472.6,2.5-1544,20.4c-173.5,48.5-329.2,181.2-418.5,359.8l-79.1,158.2V110v1447l79.1,160.8c84.2,163.3,216.9,285.8,387.9,349.6c61.3,23,469.6,28.1,1549.1,25.5C6454.7,2087.9,6523.6,2085.3,6620.6,2036.8z"/><path d="M3530,1605.5l-86.8-86.8V110v-1408.7l86.8-86.8l86.8-86.8h1408.8h1408.8l86.8,86.8l86.8,86.8V110v1408.8l-86.8,86.8l-86.8,86.8H5025.5H3616.8L3530,1605.5z"/><path d="M166.4,2404.3c-56.2-66.4-66.4-102.1-66.4-242.4c0-214.4,45.9-306.3,173.5-342c58.7-17.9,255.2-25.5,520.6-20.4c408.3,7.7,426.2,10.2,490,68.9c61.2,58.7,66.4,79.1,66.4,275.6c0,194-5.1,219.5-63.8,275.6c-61.3,63.8-63.8,63.8-558.9,63.8H232.7L166.4,2404.3z"/><path d="M8713.3,2419.6c-58.7-56.2-63.8-81.7-63.8-275.6c0-196.5,5.1-216.9,66.3-275.6c63.8-58.7,81.7-61.2,490-68.9c265.4-5.1,461.9,2.5,520.6,20.4c127.6,35.7,173.5,127.6,173.5,342c0,140.4-10.2,176.1-66.3,242.4l-66.4,79.1h-495.1C8777.1,2483.4,8774.5,2483.4,8713.3,2419.6z"/><path d="M240.4,1120.6C138.3,1077.2,100,985.4,100,786.3c0-137.8,10.2-173.5,66.4-239.9l66.4-79.1h495.1c495.1,0,497.7,0,558.9,63.8c58.7,56.2,63.8,81.7,63.8,275.6c0,196.5-5.1,216.9-66.4,275.6c-63.8,58.7-79.1,61.3-515.5,66.4C434.3,1153.8,296.5,1146.1,240.4,1120.6z"/><path d="M8802.6,1138.5c-20.4-7.7-63.8-38.3-94.4-66.3c-51-45.9-58.7-76.6-58.7-265.4c0-194,5.1-219.5,63.8-275.6c61.3-63.8,66.3-63.8,546.2-63.8c472.1,0,487.4,2.5,553.8,61.2c61.3,51,71.5,81.7,81.7,229.7c23,357.3-43.4,398.1-638,395.6C9027.2,1153.8,8823,1146.1,8802.6,1138.5z"/><path d="M184.2-257.5c-68.9-58.7-71.5-71.5-71.5-283.3s2.6-224.6,71.5-283.3c71.5-61.3,81.7-61.3,551.3-61.3c474.7,0,479.8,0,548.7,63.8c61.2,56.1,66.4,76.6,66.4,265.4c0,112.3-7.7,222-15.3,245c-38.3,94.4-142.9,114.8-620.2,114.8C265.9-196.3,253.1-198.8,184.2-257.5z"/><path d="M8764.3-224.3c-97-56.2-114.8-104.6-114.8-321.6c0-194,5.1-219.5,63.8-275.6c61.3-63.8,66.3-63.8,546.2-63.8c474.7,0,484.9,0,556.3,61.3c68.9,58.7,71.5,71.5,71.5,280.7c0,193.9-7.6,224.6-58.7,275.6c-56.2,56.2-76.6,58.7-535.9,66.3C8973.6-198.8,8797.5-206.5,8764.3-224.3z"/><path d="M186.8-1610.1c-61.2-51-71.5-81.6-81.7-229.7c-7.7-102.1,2.5-199.1,20.4-247.5c56.1-132.7,127.6-150.6,622.7-150.6c441.5,0,446.6,0,523.2,66.3c76.6,63.8,79.1,71.5,79.1,280.7c0,196.5-5.1,222-63.8,278.2c-61.3,63.8-66.4,63.8-546.1,63.8C268.4-1548.8,253.1-1551.4,186.8-1610.1z"/><path d="M8713.3-1612.7c-58.7-56.2-63.8-81.7-63.8-278.2c0-209.3,2.5-216.9,79.1-280.7c76.6-66.3,81.7-66.3,523.2-66.3c495.1,0,566.6,17.9,622.7,150.6c17.9,48.5,28.1,145.4,20.4,247.5c-10.2,148-20.4,178.7-81.7,229.7c-66.3,58.7-81.7,61.3-553.8,61.3C8779.6-1548.8,8774.5-1548.8,8713.3-1612.7z"/><path d="M2700.6-3605.8c-58.7-63.8-61.3-81.7-68.9-490c-7.7-268,0-461.9,17.9-520.6c38.3-127.6,130.2-173.5,344.5-173.5c140.4,0,176.1,10.2,242.4,66.3l79.1,66.4v495.1c0,495.1,0,497.7-63.8,558.9c-56.1,58.7-81.7,63.8-275.6,63.8C2779.7-3539.5,2759.3-3544.6,2700.6-3605.8z"/><path d="M4078.7-3572.7c-86.8-66.4-99.5-137.8-99.5-576.8c0-237.3,10.2-461.9,25.5-497.7c38.3-104.6,158.2-150.6,364.9-137.8c155.7,7.7,183.8,17.9,237.4,79.1c58.7,68.9,61.2,81.7,61.2,556.3c0,479.8,0,484.9-63.8,546.2c-56.2,58.7-81.7,63.8-273.1,63.8C4206.3-3542,4104.2-3554.8,4078.7-3572.7z"/><path d="M5395.6-3603.3c-63.8-61.3-63.8-66.3-63.8-546.2c0-472.1,2.5-487.4,61.3-553.8c51-61.3,81.7-71.5,229.7-81.7c102.1-7.6,199.1,2.5,247.5,20.4c132.7,56.2,150.6,127.6,150.6,612.5c0,587-12.8,610-352.2,612.5C5477.2-3539.5,5451.7-3544.6,5395.6-3603.3z"/><path d="M6748.2-3603.3c-63.8-61.3-63.8-63.8-63.8-558.9v-495.1l79.1-66.4c66.4-56.1,102.1-66.3,239.9-66.3c342,0,377.7,63.8,365,676.3c-7.6,428.8-10.2,444.1-68.9,507.9c-58.7,61.2-79.1,66.3-275.6,66.3C6829.8-3539.5,6804.3-3544.6,6748.2-3603.3z"/></g></g>
</svg>