<?xml version="1.0" encoding="UTF-8" standalone="no"?>
<!-- Created with Inkscape (http://www.inkscape.org/) -->

<svg
   width="98.612923mm"
   height="98.612923mm"
   viewBox="0 0 98.612923 98.612923"
   version="1.1"
   id="svg5"
   xmlns="http://www.w3.org/2000/svg"
   xmlns:svg="http://www.w3.org/2000/svg">
  <defs
     id="defs2" />
  <g
     id="layer1"
     transform="translate(-58.641713,-96.954013)">
    <path
       style="fill:#018ebc;fill-opacity:1;stroke-width:0.264583"
       d="m 72.606352,178.71974 c -0.644943,-1.41834 -1.729939,-3.82897 -2.411098,-5.35693 -0.681159,-1.52797 -1.653357,-3.6711 -2.160439,-4.76251 -0.507085,-1.0914 -1.441479,-3.13998 -2.076437,-4.55239 -0.634955,-1.41242 -1.206299,-2.51619 -1.269648,-2.45284 -0.162549,0.16255 -0.435229,1.93739 -1.503071,9.78336 -0.51494,3.78354 -1.006462,7.32565 -1.092264,7.87135 l -0.156009,0.99219 h -1.685975 c -2.014331,0 -1.922084,0.56351 -0.902925,-5.51565 0.430678,-2.56894 1.20596,-7.46878 1.722848,-10.88852 0.516887,-3.41973 1.214434,-7.82505 1.550101,-9.78958 l 0.610303,-3.57187 0.84568,1.65369 c 0.465125,0.90953 1.488747,3.11218 2.274718,4.89479 0.785969,1.78261 2.219598,4.96751 3.18584,7.07756 0.966243,2.11005 2.31575,5.11294 2.998904,6.67309 0.683154,1.56015 1.310828,2.84008 1.394833,2.84428 0.152885,0.008 1.087771,-1.9205 4.293929,-8.85591 0.941816,-2.0373 2.513946,-5.43058 3.493621,-7.54063 0.979676,-2.11005 2.061729,-4.47023 2.404565,-5.24485 0.643875,-1.4548 1.16377,-1.61624 1.165514,-0.36193 0.0011,0.69891 0.746535,5.94812 1.848577,13.01511 0.81316,5.21449 2.119183,14.5371 2.119183,15.12707 0,0.4554 -0.171119,0.50036 -1.636014,0.42983 l -1.636016,-0.0788 -1.346219,-9.52369 -1.346218,-9.5237 -0.616884,1.45391 c -0.339286,0.79964 -1.248447,2.82312 -2.020359,4.4966 -0.771911,1.67349 -2.139418,4.65006 -3.038903,6.61459 -3.237466,7.07081 -3.526327,7.6729 -3.680796,7.67204 -0.08619,-5.3e-4 -0.684398,-1.16134 -1.329341,-2.57969 z m 22.339263,1.21998 c -0.07566,-0.19756 -0.106609,-6.55046 -0.06877,-14.11754 l 0.0688,-13.75833 2.513542,-0.08 c 5.140823,-0.1637 8.346893,0.73831 10.074713,2.83445 2.16755,2.62962 2.06691,7.22402 -0.21045,9.60704 -0.64788,0.67794 -0.65851,0.73037 -0.18284,0.90177 6.26038,2.25584 5.86454,11.61903 -0.59776,14.13959 -1.93095,0.75314 -11.342932,1.13707 -11.597234,0.47306 z m 9.652015,-3.1588 c 2.37487,-0.54721 3.70947,-2.20703 3.70947,-4.61338 0,-3.16468 -2.11115,-4.60526 -7.0776,-4.82954 l -2.976564,-0.13442 v 4.9317 4.93169 l 2.579684,-0.006 c 1.41883,-0.004 3.11309,-0.12937 3.76501,-0.27959 z M 103.826,163.68648 c 1.36911,-0.78638 2.17247,-2.52578 2.00033,-4.33103 -0.25803,-2.70609 -2.0266,-3.98431 -5.51279,-3.98431 h -2.060604 v 4.53028 4.53028 l 2.331924,-0.11149 c 1.68164,-0.0804 2.58547,-0.25713 3.24114,-0.63373 z m 12.85958,16.3791 c -0.097,-0.097 -0.17639,-6.39442 -0.17639,-13.99423 v -13.81784 l 0.59531,-0.14689 c 0.32742,-0.0808 3.66117,-0.15648 7.40833,-0.1682 l 6.81302,-0.0213 v 1.72703 1.72702 h -5.68854 -5.68854 v 3.96338 3.96338 l 5.4901,0.0715 5.49011,0.0715 v 1.45521 1.45521 l -5.49011,0.0715 -5.4901,0.0715 v 5.28629 5.2863 h 5.68854 5.68854 v 1.5875 1.5875 h -7.23194 c -3.97757,0 -7.31132,-0.0794 -7.40833,-0.17639 z m 19.66736,-13.97651 V 151.8649 l 4.56406,0.1325 c 5.15234,0.14957 6.8248,0.53132 9.59114,2.1893 7.81766,4.6854 9.07994,15.61414 2.53092,21.91246 -3.39226,3.2624 -5.15769,3.86177 -11.98977,4.07056 l -4.69635,0.14353 z m 9.33864,10.56075 c 5.55991,-1.44071 8.64902,-6.08119 7.8823,-11.84081 -0.78991,-5.93376 -4.49719,-9.03499 -11.20167,-9.37048 l -2.84427,-0.14233 v 10.88539 10.88538 h 2.27691 c 1.2523,0 3.00133,-0.18771 3.88673,-0.41715 z M 69.678994,140.79275 C 60.800138,139.05434 56.140773,127.853 60.52055,118.77541 c 3.545949,-7.34938 13.662462,-9.86639 19.013115,-4.73049 l 0.992187,0.95236 v -1.3483 c 0,-0.9854 0.112647,-1.39153 0.418516,-1.50891 0.544308,-0.20887 5.497827,-0.20887 6.042136,0 0.374335,0.14365 0.418515,1.63873 0.418515,14.16312 v 14.00251 l -3.373438,-0.074 -3.373437,-0.074 -0.08096,-1.11641 -0.08096,-1.11641 -1.584806,1.08178 c -2.722663,1.85847 -5.811271,2.45603 -9.232416,1.78619 z m 7.069733,-6.73949 c 5.922854,-2.89145 5.656085,-13.37039 -0.408673,-16.05312 -4.467079,-1.976 -9.431647,0.99742 -10.395029,6.22589 -1.350381,7.32878 4.681873,12.81582 10.803702,9.82723 z m 40.554213,-7.91858 v -14.15521 h 3.30729 3.30729 v 1.21804 1.21803 l 0.9334,-0.81953 c 3.76968,-3.30983 9.25057,-2.96326 12.40395,0.78431 l 0.69826,0.82984 1.16041,-1.06962 c 5.81347,-5.35867 14.87399,-2.74528 16.28545,4.69731 0.15199,0.80143 0.26853,5.76372 0.26853,11.43398 v 10.01806 h -3.29237 -3.29236 l -0.0811,-9.72344 c -0.0759,-9.10425 -0.11476,-9.79061 -0.61023,-10.77828 -1.64852,-3.28616 -5.9754,-2.91863 -7.74619,0.65797 l -0.72048,1.45521 -0.0845,9.19427 -0.0845,9.19427 h -3.27139 -3.27139 l -0.0837,-9.72344 c -0.0783,-9.10124 -0.11756,-9.79093 -0.61286,-10.77828 -1.76023,-3.50884 -6.52553,-2.80879 -8.08099,1.18713 -0.27204,0.69886 -0.3843,3.18168 -0.45757,10.12032 l -0.0971,9.19427 h -3.28894 -3.28894 z m -22.425781,-0.0661 0.06848,-13.95676 h 3.307292 3.307299 l 0.0812,0.97673 0.0812,0.97673 1.37401,-1.04869 c 1.75492,-1.33941 3.73405,-1.93682 5.85292,-1.76674 1.55877,0.12512 4.38464,1.11192 4.38464,1.53112 0,0.16279 -2.31462,5.41572 -2.5407,5.766 -0.0302,0.0468 -0.60619,-0.10199 -1.27992,-0.33073 -2.53527,-0.86074 -5.11387,-0.31399 -6.38618,1.35408 -1.32883,1.74219 -1.43487,2.62151 -1.43487,11.89813 v 8.5569 H 98.250602 94.80868 Z"
       id="path1234" />
  </g>
</svg>
